<svg width="20" height="21" viewBox="0 0 20 21" fill="none" xmlns="http://www.w3.org/2000/svg">
<rect width="20" height="21" fill="#F5F5F5"/>
<g id="Frame 5951" clip-path="url(#clip0_0_1)">
<rect width="410" height="899" transform="translate(-112 -59)" fill="white"/>
<g id="Group 48095483">
<g id="3" filter="url(#filter0_d_0_1)">
<g clip-path="url(#clip1_0_1)">
<rect x="-112" y="-59" width="410" height="899" rx="15" fill="white"/>
<g id="up-bar">
<rect width="410.472" height="96.3242" transform="translate(-112 -59)" fill="white"/>
<g id="nav-header">
<g id="icon/linear/task-square">
</g>
<path id="Vector" d="M10.5 21C10.0833 21 9.72933 20.8583 9.438 20.575C9.14667 20.2917 9.00067 19.9417 9 19.525C9 19.325 9.03767 19.1333 9.113 18.95C9.18833 18.7667 9.30067 18.6083 9.45 18.475L10.5 17.5L11.55 18.475C11.7 18.6083 11.8127 18.7667 11.888 18.95C11.9633 19.1333 12.0007 19.325 12 19.525C12 19.9417 11.8543 20.2917 11.563 20.575C11.2717 20.8583 10.9173 21 10.5 21ZM7.05 19.5L6 18.45L8.95 15.5L10 16.55L7.05 19.5ZM13.5 18L12 16.5L13.5 15L15 16.5L13.5 18ZM4.5 18L3 16.5L4.5 15L6 16.5L4.5 18ZM5.5 14C3.98333 14 2.68767 13.4627 1.613 12.388C0.538333 11.3133 0.000666667 10.0173 0 8.5C0 7.11667 0.458333 5.90833 1.375 4.875C2.29167 3.84167 3.425 3.23333 4.775 3.05C5.30833 2.1 6.03767 1.354 6.963 0.812001C7.88833 0.270001 8.90067 -0.000665438 10 1.2285e-06C11.5 1.2285e-06 12.8043 0.479334 13.913 1.438C15.0217 2.39667 15.6923 3.59233 15.925 5.025C17.075 5.125 18.0417 5.6 18.825 6.45C19.6083 7.3 20 8.31667 20 9.5C20 10.75 19.5627 11.8127 18.688 12.688C17.8133 13.5633 16.7507 14.0007 15.5 14H5.5Z" fill="black"/>
</g>
</g>
</g>
</g>
</g>
</g>
<defs>
<filter id="filter0_d_0_1" x="-254.297" y="-179.405" width="672.702" height="1161.7" filterUnits="userSpaceOnUse" color-interpolation-filters="sRGB">
<feFlood flood-opacity="0" result="BackgroundImageFix"/>
<feColorMatrix in="SourceAlpha" type="matrix" values="0 0 0 0 0 0 0 0 0 0 0 0 0 0 0 0 0 0 127 0" result="hardAlpha"/>
<feOffset dx="-10.9459" dy="10.9459"/>
<feGaussianBlur stdDeviation="65.6756"/>
<feComposite in2="hardAlpha" operator="out"/>
<feColorMatrix type="matrix" values="0 0 0 0 0.435417 0 0 0 0 0.319293 0 0 0 0 0.0229167 0 0 0 0.25 0"/>
<feBlend mode="normal" in2="BackgroundImageFix" result="effect1_dropShadow_0_1"/>
<feBlend mode="normal" in="SourceGraphic" in2="effect1_dropShadow_0_1" result="shape"/>
</filter>
<clipPath id="clip0_0_1">
<rect width="410" height="899" fill="white" transform="translate(-112 -59)"/>
</clipPath>
<clipPath id="clip1_0_1">
<rect x="-112" y="-59" width="410" height="899" rx="15" fill="white"/>
</clipPath>
</defs>
</svg>
